<?xml version="1.0" ?><svg id="Layer_1" style="enable-background:new 0 0 50 50;" version="1.1" viewBox="0 0 50 50" xml:space="preserve" xmlns="http://www.w3.org/2000/svg" xmlns:xlink="http://www.w3.org/1999/xlink"><style type="text/css">
	.st0{fill:#F0C4DB;}
	.st1{fill:#FF9D9C;}
	.st2{fill:#9BEAF9;}
	.st3{fill:#E9F4BC;}
	.st4{fill:#505050;}
	.st5{fill:#FEBECC;}
	.st6{fill:#FFFFFF;}
	.st7{fill:#FDE4A1;}
	.st8{fill:#FEE7B5;}
	.st9{fill:#CDF6FC;}
	.st10{fill:#F2C6DD;}
	.st11{opacity:0.1;}
</style><g><path class="st0" d="M1.04,25c0,11.6,9.4,21,21,21V4C10.44,4,1.04,13.4,1.04,25z"/><g><g><path class="st2" d="M48.28,30.87h-6.34v8.32c0,1.23-0.99,2.23-2.23,2.23H31V48H14.02V32.7c-3.92-3.37-6.32-8.46-6.05-14.09     C8.4,9.88,15.4,2.69,24.12,2.05c10.02-0.73,18.4,7,18.75,16.76L48.28,30.87z"/><g><circle class="st3" cx="25.11" cy="18.61" r="10.16"/></g></g><g><path class="st4" d="M48.89,30.57l-5.35-11.94c-0.09-2.03-0.51-4.02-1.27-5.91c0-0.02-0.01-0.04-0.02-0.05     c-1.34-3.33-3.62-6.18-6.59-8.22c-3.04-2.09-6.6-3.2-10.31-3.2c-0.44,0-0.9,0.02-1.36,0.05c-4.4,0.33-8.54,2.27-11.66,5.47     c-3.12,3.2-4.96,7.39-5.18,11.8c-0.01,0.29-0.02,0.59-0.02,0.91c0,5.17,2.21,10.11,6.07,13.56v1.4c0,0.41,0.34,0.75,0.75,0.75     s0.75-0.34,0.75-0.75v-0.01V32.7c0-0.22-0.1-0.43-0.26-0.57c-3.69-3.18-5.81-7.79-5.81-12.65c0-0.32,0.01-0.59,0.02-0.83     C9.05,10.36,15.83,3.4,24.1,2.8c0.42-0.03,0.84-0.05,1.25-0.05c6.88,0,12.98,4.13,15.53,10.52c0.71,1.77,1.1,3.64,1.17,5.58     l0.07,0.27l4.93,11h-5.18c-0.2,0-0.4,0.08-0.53,0.22c-0.14,0.14-0.22,0.33-0.22,0.53v8.32c0,0.81-0.67,1.47-1.48,1.47h-8.72     c-0.19,0-0.39,0.08-0.53,0.22c-0.14,0.14-0.22,0.34-0.22,0.53v5.84H14.7v-8.81c0-0.41-0.34-0.75-0.75-0.75s-0.75,0.34-0.75,0.75     V48c0,0.2,0.08,0.39,0.22,0.53c0.14,0.14,0.33,0.22,0.53,0.22h16.97c0.2,0,0.39-0.07,0.53-0.22c0.14-0.14,0.22-0.33,0.22-0.53     v-5.83h7.97c1.64-0.01,2.97-1.34,2.98-2.98v-7.57h5.59c0.25,0,0.49-0.13,0.63-0.34C48.98,31.07,49,30.8,48.89,30.57z"/><circle class="st4" cx="13.95" cy="36.44" r="0.75"/><path class="st4" d="M35.94,18.61c0-6.02-4.9-10.91-10.91-10.91s-10.91,4.9-10.91,10.91c0,6.02,4.9,10.91,10.91,10.91     S35.94,24.63,35.94,18.61z M25.03,28.02c-5.19,0-9.41-4.22-9.41-9.41c0-5.19,4.22-9.41,9.41-9.41s9.41,4.22,9.41,9.41     C34.44,23.8,30.22,28.02,25.03,28.02z"/><path class="st4" d="M25.03,14.67c0.88,0,1.59,0.71,1.59,1.59c0,0.41,0.34,0.75,0.75,0.75s0.75-0.34,0.75-0.75     c0-1.44-1-2.65-2.34-2.99v-0.56c0-0.41-0.34-0.75-0.75-0.75s-0.75,0.34-0.75,0.75v0.56c-1.34,0.34-2.34,1.54-2.34,2.99     c0,1.7,1.39,3.09,3.09,3.09c0.88,0,1.59,0.71,1.59,1.59s-0.71,1.59-1.59,1.59s-1.59-0.71-1.59-1.59c0-0.41-0.34-0.75-0.75-0.75     s-0.75,0.34-0.75,0.75c0,1.45,1,2.65,2.34,2.99v0.56c0,0.41,0.34,0.75,0.75,0.75s0.75-0.34,0.75-0.75v-0.56     c1.34-0.34,2.34-1.54,2.34-2.99c0-1.7-1.39-3.09-3.09-3.09c-0.88,0-1.59-0.71-1.59-1.59S24.15,14.67,25.03,14.67z"/></g></g></g></svg>