<?xml version="1.0" ?><svg height="64" id="svg8" version="1.1" viewBox="0 0 16.933333 16.933334" width="64" xmlns="http://www.w3.org/2000/svg" xmlns:cc="http://creativecommons.org/ns#" xmlns:dc="http://purl.org/dc/elements/1.1/" xmlns:inkscape="http://www.inkscape.org/namespaces/inkscape" xmlns:rdf="http://www.w3.org/1999/02/22-rdf-syntax-ns#" xmlns:sodipodi="http://sodipodi.sourceforge.net/DTD/sodipodi-0.dtd" xmlns:svg="http://www.w3.org/2000/svg"><defs id="defs2"/><g id="layer1"><path d="M 8.0019531,0 C 3.5873896,0 0,3.5873673 0,8.0019531 0,20.333984 0,32.666016 0,44.998047 -0.00145512,45.86394 1.0234569,46.322386 1.6679688,45.744141 L 11.382812,36.998047 H 13 v 10 C 13,51.41263 16.587388,55 21.001953,55 h 31.613281 l 9.714844,8.740234 C 62.974612,64.321567 64.002986,63.862086 64,62.994141 v -15.996094 -21 C 64,21.58346 60.410657,17.996094 55.996094,17.996094 H 51 V 8.0019531 C 51,3.5873673 47.412618,0 42.998047,0 Z M 31.998047,8.0019531 c 6.64301,0 11,5.5200619 11,10.9179689 0,3.976875 -1.355769,6.071061 -2.828125,7.964844 C 38.948295,28.456057 37.533765,29.935281 37.082031,32 h -4.080078 v -5.587891 l 2.708985,-2.701171 c 0.393022,-0.390942 0.393022,-1.02703 0,-1.417969 -0.390721,-0.391718 -1.025298,-0.391718 -1.416016,0 l -2.292969,2.292969 -2.289062,-2.292969 c -0.187658,-0.188739 -0.442833,-0.294884 -0.708985,-0.294922 -0.26615,3.9e-5 -0.521327,0.106187 -0.708984,0.294922 -0.393022,0.390939 -0.393022,1.027027 0,1.417969 l 2.708984,2.701171 V 32 h -4.158203 c -0.44625,-2.059681 -1.841318,-3.536896 -3.046875,-5.107422 -1.453622,-1.893691 -2.789062,-3.992738 -2.789062,-7.972656 0,-5.397917 4.345222,-10.9179689 10.988281,-10.9179689 z M 6.9980469,8.9980469 H 12.003906 C 12.556175,9.0002001 13.0022,9.4496815 13,10.001953 c -0.0021,0.549224 -0.446872,0.993994 -0.996094,0.996094 H 6.9980469 C 6.4488248,10.995905 6.0040931,10.551177 6.0019531,10.001953 5.9997912,9.4496815 6.4457785,9.0001967 6.9980469,8.9980469 Z M 31.998047,10.001953 c -3.206828,0 -6.167995,1.706695 -7.777344,4.480469 -0.277716,0.477309 -0.115947,1.089413 0.361328,1.367187 0.477384,0.276057 1.088184,0.113529 1.365235,-0.363281 1.25313,-2.159818 3.553761,-3.482422 6.050781,-3.482422 0.55609,0.0022 1.007168,-0.449772 1.003906,-1.005859 -0.0022,-0.552272 -0.451637,-0.998255 -1.003906,-0.996094 z M 6.9980469,15 h 9.0507811 c 0.552268,-0.0022 1.001752,0.443822 1.003906,0.996094 C 17.054908,16.55142 16.60415,17.0022 16.048828,17 H 6.9980469 C 6.4457785,16.997846 5.9997912,16.548366 6.0019531,15.996094 6.0040961,15.446869 6.4488248,15.002142 6.9980469,15 Z m 17.0058591,3 c -0.552268,0 -1,0.447729 -1,1 0,0.552271 0.447732,1 1,1 0.552268,0 1,-0.447729 1,-1 0,-0.552271 -0.447732,-1 -1,-1 z M 51,19.998047 h 4.996094 c 3.341189,0 6.001953,2.65879 6.001953,6 v 21 13.759765 l -8.333985,-7.5 C 53.481851,53.09329 53.245488,53.001512 53,53 H 21.001953 C 17.660758,53 15,50.339251 15,46.998047 v -10 h 8.175781 c 0.303561,0.845883 0.979694,1.520284 1.826172,1.824219 v 5.378906 c 0,1.533861 1.269287,2.885577 3,2.796875 L 28,47.994141 C 27.996747,49.675471 29.359256,51 31.003906,51 h 1.998047 C 34.646604,51 36.002509,49.68577 36,47.994141 v -0.996094 c 1.735807,0.09691 3.003906,-1.263014 3.003906,-2.796875 v -5.378906 c 0.846614,-0.303874 1.522578,-0.978238 1.826172,-1.824219 h 2.167969 c 2.027509,0 3.879925,-0.755723 5.291015,-2 h 8.712891 c 0.549222,-0.0021 0.993951,-0.446868 0.996094,-0.996094 0.0032,-0.553032 -0.443055,-1.003709 -0.996094,-1.005859 H 49.927734 C 50.607955,31.820932 51,30.458548 51,29.003906 h 6.001953 C 57.554221,29.001753 58.000209,28.552271 57.998047,28 57.995945,27.450775 57.551175,27.006048 57.001953,27.003906 H 51 Z M 6.9980469,21.001953 h 9.0507811 c 0.552268,-0.0022 1.001706,0.443822 1.003906,0.996094 0.0022,0.555326 -0.448584,1.006106 -1.003906,1.003906 H 6.9980469 c -0.5522684,-0.0022 -0.9982538,-0.451634 -0.9960938,-1.003906 0.00214,-0.549224 0.4468717,-0.993994 0.9960938,-0.996094 z m 0,6.001953 h 9.0507811 c 0.552268,-0.0022 1.001706,0.443822 1.003906,0.996094 0.0022,0.555326 -0.448584,1.006106 -1.003906,1.003906 H 6.9980469 C 6.4457785,29.001752 5.9997931,28.552271 6.0019531,28 6.0040961,27.450775 6.4488248,27.006048 6.9980469,27.003906 Z M 26.005859,34.001953 H 38 c 0.571242,0 1.003906,0.424849 1.003906,0.996094 v 1.003906 c 0,0.571242 -0.432664,0.996094 -1.003906,0.996094 H 26.005859 c -0.571239,0 -1.003906,-0.424852 -1.003906,-0.996094 v -1.003906 c 0,-0.571245 0.432667,-0.996094 1.003906,-0.996094 z m 0.998047,4.994141 h 10 v 5.205078 c 0,0.460479 -0.344206,0.796875 -0.804687,0.796875 h -8.398438 c -0.46048,0 -0.796875,-0.336419 -0.796875,-0.796875 z m 16.998047,0 c -0.555322,-0.0022 -1.006076,0.44858 -1.003906,1.003906 0.0022,0.552272 0.451638,0.998256 1.003906,0.996094 h 13 c 0.549222,-0.0021 0.993951,-0.446868 0.996094,-0.996094 0.0022,-0.552272 -0.443826,-1.001759 -0.996094,-1.003906 z m 0,6.001953 c -0.552268,-0.0022 -1.001752,0.443825 -1.003906,0.996094 -0.0022,0.555329 0.448584,1.006075 1.003906,1.003906 h 13 c 0.552268,-0.0022 0.998256,-0.45163 0.996094,-1.003906 -0.0021,-0.549222 -0.446872,-0.993951 -0.996094,-0.996094 z m -14.001953,2 h 4 v 0.996094 C 34,48.56542 33.573233,49 33.001953,49 H 31.003906 C 30.432628,49 30,48.56542 30,47.994141 Z" id="path842" style="opacity:1;fill:#000000;fill-opacity:1;stroke:none;stroke-width:2;stroke-linecap:round;stroke-linejoin:round;stroke-miterlimit:4;stroke-dasharray:none;stroke-dashoffset:0;stroke-opacity:1" transform="scale(0.26458334)"/></g></svg>